# xmcd CD database file
#
# Track frame offsets:
#	150
#	16432
#	37117
#	59473
#	84142
#	103378
#	126960
#	151183
#	167772
#	190686
#	218448
#
# Disc length: 3166 seconds
#
# Revision: 16
# Processed by: cddbd v1.5.1PL2 Copyright (c) Steve Scherf et al.
# Submitted via: CDex 1.70beta2
#
DISCID=8b0c5c0b
DTITLE=Mr.Children - KIND OF LOVE
DYEAR=1992
DGENRE=Rock
TTITLE0=虹の彼方へ
TTITLE1=All by myself
TTITLE2=BLUE
TTITLE3=抱きしめたい
TTITLE4=グッバイ・マイ・グルーミーデイズ
TTITLE5=Distance
TTITLE6=車の中でかくれてキスをしよう
TTITLE7=思春期の夏 ～君との恋が今も牧場に～
TTITLE8=星になれたら
TTITLE9=ティーンエイジ・ドリーム（Ⅰ～Ⅱ）
TTITLE10=いつの日にか二人で
EXTD=YEAR: 1992
EXTT0=
EXTT1=
EXTT2=
EXTT3=
EXTT4=
EXTT5=
EXTT6=
EXTT7=
EXTT8=
EXTT9=
EXTT10=
PLAYORDER=
